<?xml version="1.0" encoding="UTF-8"?>
<svg id="Livello_2" data-name="Livello 2" xmlns="http://www.w3.org/2000/svg" viewBox="0 0 277.72 236.59">
  <defs>
    <style>
      .cls-1 {
        fill: #5b292c;
      }
    </style>
  </defs>
  <g id="Livello_1-2" data-name="Livello 1">
    <g>
      <path class="cls-1" d="M264.62,123.35c-9.15-8.22-20.91-17.79-30.87-27.86-4.89-4.94-9.21-8.63-9.49-12.9-.15-2.31,9.11-29.03,12.75-22.23.04.07.14.1.22.12.49.11,1.13-.06,1.54.46.38-.57-.61-.63-.97-.99-1.21-1.24-1.71-3.55-3.99-2.4-3.29,1.66-10.75,20.15-12.82,26.51-4.04-12.05-8.76-19.37-10.73-22.5,10.5-7.65,13.54-17.82,9.14-27.52-4.4-9.7-18.2-7.58-22.6-.11-3.67,6.16.24,15.97,3.45,21.81,1.69,3.07,3.27,4.84,3.27,4.84,0,0-2.73,1.78-3.69,2.52-30.79,23.38,7.01,55.06,21.2,27.73.22-.43.92-2.09.92-2.09l28.89,25.8s-2.09-1.36-9.25-2.03-13.63,1.44-20.51,2.31c-.03,0-.06,0-.09,0-56.36-1.48-112.78-7.66-169.1-10.62-.02,0-.05,0-.07,0-2.73.16-5.35.84-7.9,1.79-5.62,2.09-10.94,5.51-16.52,7.6-1.28.61-3.41,1.15-4.9,2.02-.18.08-.34.19-.49.31,0,0,0,0,0,0,0,0,0,0,0,0-.33.28-.62.65-.95.93-.4-3.45-3.54-5.54-4.31-.98-.09.19-.23.39-.44.44.02,0-.04,0-.05.01,0,0,0,0,.02,0-.07,0-.09-.01-.02,0,0,0-.02,0-.03,0,.01.02-.03,0-.04-.01,0,.01-.03-.03-.05-.06-.1-.15-.1-.34-.09-.52,0,0,.02-.2.02-.19.28-.93-.06-2.43-1.24-2.22-1.81-7.2-2.75,1.69-4.83,3.07,1.13-2.94-1.21-5.86-1.89-1.69-1.65,1.14-.34-3.28-2.49-.82-.65-.99-1.91-.4-2.18.6-2.22-3.41-5.63,4.56-1.51,2.18.03.06.03.3.03.34-.7,1.81,1.52,2.62,2.2.88.2.48.99.23,1.02.69,0-.01,0-.02,0-.04-.01,3.28,2.57,2.16,3.16-.21.56,1.1,2.22,1.52,2.93.35-.28.99.23,3.53,1.45,2.04.1,1.09.58,4.11,2,2.35.55-1.67,0-3.67.56-5.29.01,0,.04,0,.01-.01.07-.03.28.2.23.15-.46,3.2,2.76,4.24,2.95.74-.01-.39-.07-1.18.44-1.17,1.82,1,1.55,6.15,4.06,5.22,1.24-1.58-1.67-4.76.74-5.15.05,0,.1,0,.15.02,8.29,4.05,16.57,8.21,25.09,11.68.08.03.16.04.24.04,13.11-.93,26.22-1.16,39.37-1.77,39.95-1.85,79.9-4.34,119.89-5.79,7.51-.27,23.22,3.16,23.22,3.16,0,0,.17,2.18-1.01,4.53-3.67,7.29-9.8,8.67-13.93,9.02-3.53.3-7.44,1.06-9.88,2.86-.57.42-.06,1.32.56,1,7.21-3.68,16.64-.84,22.28-8.24,3.29-4.31,3.34-8.92,3.34-8.92,0,0,3.22.48,4.48.57,5.48.39,12.44-1.22,15-4.53,1.34-1.73.34-2.56,2.77-.43,3.91,3.41,8.72,6.6,11.28,9.49,17.15,19.3,2.76,26.69-18.19,13.94-2.08-1.27-5.41-4.58-7.8-8.72-1.14-1.98-1.82-4.1-2.52-6.39-.74-2.4-.73-.21-.7.13.13,1.13.67,2.52.94,3.52,1.55,5.7,4.94,9.27,9.03,13.09,7.18,6.7,18.2,9.18,24.8,6.32,7.65-3.33,9.36-13.59-7.53-28.77ZM198.14,43.72c-.48-4.3,1.87-10.47,7.12-12.08,5.25-1.61,8.92-.29,11.2,4.51,2.28,4.8,1.03,11.14-1.35,15.39-1.66,2.97-5.16,7.39-7.24,8.48-2.08,1.09-9.07-10.33-9.73-16.3ZM218.4,90.7c-1.33,4.54-9.25,9.11-15.8,7.65-7.9-1.77-13.71-13.5-8.32-23.78,1.81-3.18,6.52-7.93,9.58-9.78,4.82-2.78,12.72,13.36,13.81,16.21,1.29,3.38,1.87,5.82.73,9.7ZM196.32,120.62c-48.95,2.12-97.99,5.34-146.99,6.63-2.05-.05-17.88-7.77-17.88-7.77,0,0,1.22-.27,1.53-2.64.3-2.37-1.43-3.21-1.43-3.21,0,0,16.64-7.2,19.46-7.2,57.49,2.31,115.12,9.21,172.52,10.14.03,0,11.76-4.76,20.69-1.27-4.35-.15-6.98-.16-10.13,0-9.64.5-9.76,4.35-5.45,6.09,4.31,1.75,13.24,1.67,13.24,1.67-.82,1.58-5.36.69-5.84.6-4.52-.78-24.81-4.46-39.71-3.04ZM239.3,120.57c-5.58-.06-10.85-.75-10.85-1.96,0-1.27,5.72-1.44,10.97-1.45,3.89-.01,11.2.99,11.2,2.15,0,1.16-6.66,1.31-11.32,1.26Z"/>
      <path class="cls-1" d="M57.53,94.74c.06.1.14.18.24.22,18.47,8.11,63.73,18.64,70.92-8.56,0-.04.58-2.19.71-4.36.13-2.13-.19-4.28-.2-4.32-3.61-20.56-23.92-32.63-28.1-53.11-3.89-20.18,20.33-17.9,17.24-3.27-.58,2.75-1.05,5.37.71,3.99.01,0,.03-.02.04-.03,3.27-1.94,13.33-4.24,12.36-6.89-7.5-20.51-25.94-25.16-39.44-7.4-.01.02-.03.04-.04.05-4.63,7.27-4.06,18.75-2.19,26.86,3.43,14.88,12.35,24.31,20.04,36.62,2.64,4.22,5.53,7.8,1.61,12.53-.03.03-.06.06-.1.09-13.06,10.46-33.04,5.79-46.96-.35-.21-.09-.45-.04-.61.13l-6.19,6.62c-.05.06-.09.13-.12.2l-.1.33c-.05.14-.03.3.04.43l.12.22Z"/>
      <path class="cls-1" d="M130.48,74.88c-.1.94-.85,6.93-1.07,11.61-.77,16.01,17.43,20.96,29.95,21.49,0,0,0,0,0,0,7.69-.63,10.31-4.41,13.22-9.57,9.36-16.6,7.05-50.33,11.77-65.42,1.61-4.62.96-5.76-2.42-4.42-3.39,1.33-11.85,1.34-12.4,1.36-2.5.05-3.23.31-2.57,3.66.63,3.39,2.98,53.92-9.83,62.25-2.19,1.43-9.72,1.94-10.98-2.82-2.96-11.24,2.41-37.79,3.92-40.85,1.51-3.06,2.05-5.24-3.2-5.92-4.33-.56-14.19-5.22-14.57-4.62-.37.58-.09,3.02-.08,3.1,1.09,10.08-.67,20.11-1.73,30.16Z"/>
      <path class="cls-1" d="M160.85,141.32s-2.03,1.68-2.36,1.18c-1.84-2.76-1.43-8.65,1.96-10.03,2.27-.92,3.45.05,4.31-.87.41-.44.49-1.27.26-1.38-1.89-.9-11.08.28-13.79.19-2.89-.17-8.12-.82-10.38-1.18-2.25-.36-3.63-.75-3.21,1.2.43,2.02,7.88,2.08,7.8,5.77-.07,3.89-5,27.95-8.11,41.03-1.98,8.35-5.8,15.08-2.62,15.78,5.01,1.11,24.09,4.62,35.57,6.74.31.06.6-.17.63-.5.76-8.05,5.38-19.2,5.39-19.23,2.17-7.19-13.34-4.27-17.1-4.39-3.18-.1-5.04.13-6.47-.05-.67-.08-1.12-.75-.95-1.43,2.05-8.18,4.17-18.9,11.46-23.52.03-.02.07-.04.1-.05,17.43-7.38,21.37,12.09,18.82,25.85-3.13,16.58-4.05,44.07-20.62,52-1.91,1.56-5.73.97-8.03.84-.01,0-.03,0-.04,0-10.35-1.31-8.82-14.94-7.39-22.85,0-.03.01-.06.02-.09,1.79-4.98-.27-4.04-4.36-4.08-.02,0-.04,0-.06,0-2.08-.19-4.7-.83-6.8-1.1-3.44-.4-2.9,3.89-2.9,3.91-.28,6.05.21,10.99,2.75,16.43,5.61,12,18.23,16.79,30.46,14.56.02,0,.04,0,.07-.02,30.01-8.53,40.81-58,28.06-84.56-5.81-10.71-22.27-18.26-32.46-10.16Z"/>
      <path class="cls-1" d="M99.04,134.03c-41.46-17.88-35.63,47.36-47.61,68.45-.76,1.33-2.68,3.73.22,3.8,2.17.06,18.88.89,17.94-3.54-.31-1.46-.55-2.93-.45-4.43.97-14.89,3.69-38.78,12.47-52.03.01-.02.03-.04.04-.05,3-3.8,6.91-5.88,11.67-4.59,11.71,3.03-7.21,46.17-6.52,47.71,1.52,3.4,14.07,9.3,17.17,9.66.32.04.6-.23.61-.57.07-10.46,1.31-20.24,5.26-30.83,5.61-15.01,4.23-26.33-10.8-33.57Z"/>
      <path class="cls-1" d="M128.34,160.46c-1.04-.77-9.07-3.29-11.57-1.65-.16.1-.26.27-.27.46-.76,12.23-3.43,25.13-4.48,37.15-.03.31.18.59.48.63,1.42.19,5.27.02,7.93.73.65.17,1.32-.22,1.55-.88,3.77-10.97,3.62-23.02,6.22-34.17.17-.73,1.18-1.49.14-2.26Z"/>
      <path class="cls-1" d="M43.57,208.24c-.14-.81.06-2.24-.79-2.62-.85-.37-2.32,1.99-6.28,1.75-1.16-.07,5.51,4.51,7.9,15.11.23,1,2.35-3.28,5.86-3.69,3.03-.36-5.56-3.86-6.69-10.55Z"/>
      <path class="cls-1" d="M51.86,109.02c-.63.06-.53,1.09.09,1.14,42.03,3.66,85.26,4.71,127.68,7.24.7.04.7,1.12,0,1.16-40.53,2.44-85.64.96-125.61,5.15-.72.08-.64,1.2.08,1.16.31-.02.57-.04.74-.04,52.65-1.93,105.47-3.09,158-5.99l.43-1.33c-51.9-2.81-103.89-6.14-155.81-8.44-.03,0-4.06-.21-5.6-.05Z"/>
      <path class="cls-1" d="M156.38,118.42c.97,0,1.34-.55.21-.92-32.23-2.05-66.36-1.7-98.83-1.69-.06,0-7.93-.32-8.3,1.01-.05.19.02.41.16.54l.12.13c35.53.66,71.1,1.81,106.64.94Z"/>
      <path class="cls-1" d="M116.01,199.1c-4.88-1.23-6.11,1.63-6.83,5.16-.72,3.53,1.16,6.93,4.21,7.61,3.05.68,6.11-1.63,6.83-5.16.72-3.53.67-6.39-4.21-7.61Z"/>
    </g>
  </g>
</svg>